<svg width="25" height="23" viewBox="0 0 25 23" fill="none" xmlns="http://www.w3.org/2000/svg">
<path d="M21.0044 22.3326H3.9903C3.61957 22.3326 3.32 22.0347 3.32 21.666V13.1046H2.62535C1.94382 13.1046 1.34841 12.6931 1.10687 12.0581C0.865341 11.4195 1.04134 10.7194 1.5525 10.2706L10.5903 1.7576C11.6576 0.748399 13.3315 0.746537 14.4043 1.7576L23.4609 10.2855C23.9552 10.7138 24.1331 11.4157 23.8934 12.0525C23.6519 12.6912 23.0565 13.1027 22.3712 13.1027H21.6766V21.6641C21.6766 22.0328 21.377 22.3307 21.0063 22.3307L21.0044 22.3326ZM4.6606 20.9994H20.3341V12.438C20.3341 12.0693 20.6337 11.7714 21.0044 11.7714H22.3693C22.5416 11.7714 22.6109 11.6559 22.6371 11.587C22.6633 11.5182 22.6876 11.386 22.5584 11.2742L13.4813 2.72397C12.9289 2.20448 12.0639 2.20075 11.5134 2.72397L2.45497 11.2538C2.30705 11.3822 2.33327 11.5163 2.35948 11.587C2.38569 11.6559 2.45497 11.7695 2.62348 11.7695H3.98843C4.35915 11.7695 4.65873 12.0674 4.65873 12.4361V20.9976L4.6606 20.9994Z" fill="#666666" stroke="#666666" stroke-width="0.8"/>
<path d="M15.5895 22.3326H9.40321C9.03249 22.3326 8.73291 22.0346 8.73291 21.666V17.052C8.73291 14.9889 10.4218 13.3094 12.4963 13.3094C13.5018 13.3094 14.4473 13.6985 15.1588 14.4061C15.8703 15.1136 16.2616 16.0539 16.2616 17.0538V21.6678C16.2616 22.0365 15.9621 22.3344 15.5913 22.3344L15.5895 22.3326ZM10.0735 20.9994H14.9192V17.052C14.9192 16.4096 14.6683 15.8026 14.2095 15.3482C13.7527 14.892 13.1423 14.6425 12.4963 14.6425C11.1595 14.6425 10.0735 15.7225 10.0735 17.052V20.9994Z" fill="#666666" stroke="#666666" stroke-width="0.8"/>
</svg>
