<svg width="25" height="24" viewBox="0 0 25 24" fill="none" xmlns="http://www.w3.org/2000/svg">
<path d="M12.498 23C6.25369 23 1.17212 17.9484 1.17212 11.7368C1.17212 5.52522 6.25182 0.473633 12.498 0.473633C18.7442 0.473633 23.8239 5.52522 23.8239 11.7368C23.8239 17.9484 18.7442 23 12.498 23ZM12.498 1.9055C7.04757 1.9055 2.61196 6.3147 2.61196 11.7368C2.61196 17.1589 7.04569 21.5681 12.498 21.5681C17.9503 21.5681 22.384 17.1589 22.384 11.7368C22.384 6.3147 17.9503 1.9055 12.498 1.9055Z" fill="#666666" stroke="#666666" stroke-width="0.8"/>
<path d="M12.498 16.6711C12.1011 16.6711 11.7791 16.3508 11.7791 15.9561V11.7368C11.7791 11.3421 12.1011 11.0218 12.498 11.0218C12.895 11.0218 13.217 11.3421 13.217 11.7368V15.9561C13.217 16.3508 12.895 16.6711 12.498 16.6711ZM12.5093 8.23442C12.1123 8.23442 11.7847 7.91416 11.7847 7.51942C11.7847 7.12467 12.1011 6.80441 12.498 6.80441H12.5093C12.9062 6.80441 13.2283 7.12467 13.2283 7.51942C13.2283 7.91416 12.9062 8.23442 12.5093 8.23442Z" fill="#666666" stroke="#666666" stroke-width="0.8"/>
</svg>
