<svg width="23" height="25" viewBox="0 0 23 25" fill="none" xmlns="http://www.w3.org/2000/svg">
<path d="M21.7474 24.1245H1.24702C1.08974 24.1245 0.939952 24.0612 0.829483 23.9532C0.719014 23.8434 0.657227 23.6926 0.657227 23.538L0.660971 7.25675C0.660971 6.93277 0.924973 6.67023 1.25076 6.67023H21.7474C22.0732 6.67023 22.3372 6.93277 22.3372 7.25675V23.538C22.3372 23.862 22.0732 24.1245 21.7474 24.1245ZM1.83681 22.9496H21.1576V7.84328H1.84055V22.9496H1.83681Z" fill="#666666" stroke="#666666" stroke-width="0.8"/>
<path d="M12.6159 24.1283H1.24701C1.02045 24.1283 0.81262 23.9979 0.715258 23.795C0.616023 23.592 0.645981 23.3499 0.786407 23.1749L5.07972 17.8515C5.51972 17.3059 6.21249 16.9801 6.93147 16.9801C7.65046 16.9801 8.33761 17.3059 8.78136 17.8496L13.0765 23.1749C13.2188 23.3499 13.2469 23.592 13.1477 23.795C13.0485 23.9979 12.8425 24.1283 12.6159 24.1283ZM2.47714 22.9533H11.3858L7.86204 18.5851C7.42016 18.0451 6.4353 18.047 6.00091 18.5851L2.47714 22.9533Z" fill="#666666" stroke="#666666" stroke-width="0.8"/>
<path d="M21.7493 23.2233C21.5545 23.2233 21.3654 23.1284 21.2512 22.9533L16.0461 14.9021C15.8345 14.5762 15.4619 14.3807 15.05 14.3807C14.6399 14.3807 14.2673 14.5762 14.0576 14.9021L10.4159 20.5272C10.238 20.799 9.87293 20.8772 9.59956 20.704C9.3262 20.529 9.24569 20.1659 9.42169 19.8922L13.0634 14.2671C13.4922 13.6043 14.2336 13.2077 15.0462 13.2058H15.05C15.8645 13.2058 16.6059 13.6024 17.0384 14.2653L22.2454 22.3165C22.4214 22.5884 22.3428 22.9515 22.0676 23.1284C21.9683 23.1917 21.8579 23.2215 21.7493 23.2215V23.2233Z" fill="#666666" stroke="#666666" stroke-width="0.8"/>
<path d="M7.09634 15.0026C5.75386 15.0026 4.39453 14.0791 4.39453 12.3158C4.39453 8.78732 9.79815 8.78732 9.79815 12.3158C9.79815 14.0791 8.43882 15.0026 7.09634 15.0026ZM7.09634 10.802C6.33991 10.802 5.57411 11.2693 5.57411 12.3158C5.57411 13.3622 6.33804 13.8296 7.09634 13.8296C7.85464 13.8296 8.61856 13.3622 8.61856 12.3158C8.61856 11.2693 7.85464 10.802 7.09634 10.802Z" fill="#666666" stroke="#666666" stroke-width="0.8"/>
<path d="M12.6703 2.16607C12.6703 3.72083 10.3242 3.72083 10.3242 2.16607C10.3242 0.611309 12.6703 0.611309 12.6703 2.16607Z" fill="#666666" stroke="#666666" stroke-width="0.8"/>
<path d="M18.1655 7.77439H5.05527C4.82122 7.77439 4.61339 7.62543 4.5385 7.40758C4.4636 7.18787 4.5385 6.94394 4.72386 6.80429L10.3971 2.49378C10.6349 2.31317 10.9775 2.35786 11.161 2.59433C11.3445 2.83267 11.2977 3.17155 11.0599 3.35403L6.66549 6.69257H16.5553L12.1665 3.35403C11.9268 3.17155 11.8819 2.83267 12.0654 2.59433C12.2489 2.356 12.5934 2.31131 12.8293 2.49378L18.4969 6.80429C18.6823 6.94581 18.7572 7.18787 18.6823 7.40758C18.6074 7.6273 18.3995 7.77439 18.1655 7.77439Z" fill="#666666" stroke="#666666" stroke-width="0.8"/>
</svg>
